# xmcd
#
# Track frame offsets:
#	150
#	14958
#	26732
#	40260
#	53175
#	65062
#	75849
#	86556
#	98989
#	110481
#	123833
#	134274
#	143359
#	153519
#	165240
#	174525
#	186608
#	201310
#	215893
#	229322
#	243468
#	260138
#	271263
#
# Disc length: 3757 seconds
#
# Revision: 1
# Processed by: cddbd v1.5.2PL0 Copyright (c) Steve Scherf et al.
# Submitted via: audiograbber 1.83.01
#
DISCID=530eab17
DTITLE=Various Artist - Bluegrass - Out and Out D1
DYEAR=2012
DGENRE=Bluegrass
TTITLE0=Earl Johnson and His Clodhoppers - All Night Long
TTITLE1=Byrd Moore and His Hot Shots - Three Men Went A'hunting
TTITLE2=Buster Carter and Preston  Young - I'll Roll In My Sweet Baby's Arms
TTITLE3=Ronnie Knittel and The Holston Valley Ramblers - Holston Valley Breakdown
TTITLE4=Jim and Jesse Mcreynolds - I'll Fly Away
TTITLE5=Colwell Brothers - Blue Bonnet Lane
TTITLE6=Jim Eanes and His Shenandoah Valley Boys - Florida Blues
TTITLE7=Cliff Carlisle and His Buckle Busters - Footprints In The Snow
TTITLE8=J.e. Mainer's Mountaineers - Blue Ridge Mountain Blues
TTITLE9=Roy Acuff and His Smoky Mountain Boys - When I Lay My Burden Down
TTITLE10=Mccormick Brothers - The Billy Goat Boogie
TTITLE11=Arthur Smith and  Don Reno - Feudin' Banjos
TTITLE12=Monroe Gevedon and Family - Medley - Two Italians  - Red Bird
TTITLE13=Wade Mainer and Sons Of The Mountaineers - I Won't Be Worried
TTITLE14=Connie and Babe and Black Mountain Boys - Roll On Blues
TTITLE15=Carl Butler and The Lonesome Pine Boys - Shake Rattle And Roll
TTITLE16=Uncle Dave Macon and Sam Mcgee - Backwater Blues
TTITLE17=Hayes Shepherd - Hard To Love
TTITLE18=Uncle Dave Macon and His Fruit Jar Drinkers - Sail Away Ladies
TTITLE19=J E Mainer and His Mountaineers - Seven And A Half
TTITLE20=Monroe Brothers - The New River Train
TTITLE21=Wade Mainer and Zeke Morris - Short Life And It's Trouble
TTITLE22=Stanley Brothers With The Clinch Mountain Boys - Angel Band
EXTD=
EXTT0=
EXTT1=
EXTT2=
EXTT3=
EXTT4=
EXTT5=
EXTT6=
EXTT7=
EXTT8=
EXTT9=
EXTT10=
EXTT11=
EXTT12=
EXTT13=
EXTT14=
EXTT15=
EXTT16=
EXTT17=
EXTT18=
EXTT19=
EXTT20=
EXTT21=
EXTT22=
PLAYORDER=
